# xmcd
#
# Track frame offsets: 
#        150
#        16037
#        31466
#        47239
#        65324
#        78872
#        94241
#        110268
#        126341
#        145866
#        159847
#        174284
#        191118
#        207143
#        222972
#        240797
#        257900
#        272565
#        284873
#        298331
#
# Disc length: 4181 seconds
#
# Revision: 0
# Processed by: cddbd v1.5.2PL0 Copyright (c) Steve Scherf et al.
# Submitted via: ExactAudioCopy v1.1
#
DISCID=22105314
DTITLE=Various Artist - Radio 2 - De Lage Landen - CD 1
DYEAR=2008
DGENRE=Chanson
TTITLE0=Jeroen Van Der Boom - Jij Bent Zo
TTITLE1=Isabelle A - Hé, Lekker Beest
TTITLE2=Marco Borsato - Dromen Zijn Bedrog
TTITLE3=Mama's Jasje - Als De Dag Van Toen
TTITLE4=Liesbeth List and Ramses Shaffy - Pastorale
TTITLE5=Noordkaap - Ik Hou Van U
TTITLE6=Boudewijn De Groot - Als De Rook Om Je Hoofd Is Verdwenen
TTITLE7=Raymond Van Het Groenewoud - Liefde Voor Muziek
TTITLE8=Bart Peeters - Poolijs (Live)
TTITLE9=Wigbert - Ebbenhout Blues
TTITLE10=Flip Kowlier - Donderdagnacht
TTITLE11=Fixkes - Kvraagetaan
TTITLE12=Udo - Ik Mis Je Zo
TTITLE13=Erik Van Neygen and Sanne - Veel Te Mooi
TTITLE14=Günther Neefs - Ik Blijf Bij Jou
TTITLE15=Dana Winner - Westenwind
TTITLE16=Wim Sonneveld - Het Dorp
TTITLE17=Sabien Tiels - Trein
TTITLE18=Willy Sommers - Zeven Anjers, Zeven Rozen
TTITLE19=Liliane Saint-Pierre - Met Jou Wil Ik De Hemel Zien
EXTD=
EXTT0=
EXTT1=
EXTT2=
EXTT3=
EXTT4=
EXTT5=
EXTT6=
EXTT7=
EXTT8=
EXTT9=
EXTT10=
EXTT11=
EXTT12=
EXTT13=
EXTT14=
EXTT15=
EXTT16=
EXTT17=
EXTT18=
EXTT19=
PLAYORDER=
